<svg width="0" height="0" aria-hidden="true" style="position:absolute" class="latt-a11y-defs" data-latt-tex-sets="latt-a11y-tex latt-a11y-chart-tex latt-onyx-tex latt-concrete-tex latt-onyx-tex-light latt-onyx-tex-dark latt-concrete-tex-light latt-concrete-tex-dark"><defs><pattern id="latt-a11y-tex-1" patternUnits="userSpaceOnUse" width="8" height="8"><rect width="8" height="8" fill="#e8e8e8"/><g fill="none" stroke="#1a1a1a" stroke-opacity="0.45" stroke-width="1" stroke-linecap="square"><path d="M0 8 L8 0"/></g></pattern><pattern id="latt-a11y-tex-2" patternUnits="userSpaceOnUse" width="8" height="8"><rect width="8" height="8" fill="#dedede"/><g fill="none" stroke="#1a1a1a" stroke-opacity="0.45" stroke-width="1" stroke-linecap="square"><path d="M0 0 L8 8"/></g></pattern><pattern id="latt-a11y-tex-3" patternUnits="userSpaceOnUse" width="8" height="8"><rect width="8" height="8" fill="#d5d5d5"/><g fill="none" stroke="#1a1a1a" stroke-opacity="0.45" stroke-width="1" stroke-linecap="square"><path d="M0 4 H8"/></g></pattern><pattern id="latt-a11y-tex-4" patternUnits="userSpaceOnUse" width="8" height="8"><rect width="8" height="8" fill="#cccccc"/><g fill="none" stroke="#1a1a1a" stroke-opacity="0.45" stroke-width="1" stroke-linecap="square"><path d="M4 0 V8"/></g></pattern><pattern id="latt-a11y-tex-5" patternUnits="userSpaceOnUse" width="8" height="8"><rect width="8" height="8" fill="#c3c3c3"/><g fill="#1a1a1a" fill-opacity="0.40"><circle cx="4" cy="4" r="1.4"/></g></pattern><pattern id="latt-a11y-tex-6" patternUnits="userSpaceOnUse" width="8" height="8"><rect width="8" height="8" fill="#bababa"/><g fill="none" stroke="#1a1a1a" stroke-opacity="0.45" stroke-width="1" stroke-linecap="square"><path d="M0 8 L8 0 M0 0 L8 8"/></g></pattern><pattern id="latt-a11y-tex-7" patternUnits="userSpaceOnUse" width="8" height="8"><rect width="8" height="8" fill="#b1b1b1"/><g fill="none" stroke="#1a1a1a" stroke-opacity="0.45" stroke-width="1" stroke-linecap="square"><path d="M0 4 H8 M4 0 V8"/></g></pattern><pattern id="latt-a11y-tex-8" patternUnits="userSpaceOnUse" width="8" height="8"><rect width="8" height="8" fill="#a8a8a8"/><g fill="none" stroke="#1a1a1a" stroke-opacity="0.45" stroke-width="1" stroke-linecap="square"><path d="M0 2 H8 M0 6 H8" stroke-dasharray="2 2"/></g></pattern><pattern id="latt-a11y-tex-9" patternUnits="userSpaceOnUse" width="8" height="8"><rect width="8" height="8" fill="#a0a0a0"/><g fill="none" stroke="#1a1a1a" stroke-opacity="0.45" stroke-width="1" stroke-linecap="square"><path d="M0 1 L4 7 L8 1"/></g></pattern><pattern id="latt-a11y-tex-10" patternUnits="userSpaceOnUse" width="8" height="8"><rect width="8" height="8" fill="#979797"/><g fill="none" stroke="#1a1a1a" stroke-opacity="0.45" stroke-width="1" stroke-linecap="square"><circle cx="4" cy="4" r="2.2"/></g></pattern><pattern id="latt-a11y-tex-11" patternUnits="userSpaceOnUse" width="8" height="8"><rect width="8" height="8" fill="#8e8e8e"/><g fill="none" stroke="#1a1a1a" stroke-opacity="0.45" stroke-width="1" stroke-linecap="square"><path d="M2 0 V8 M6 0 V8" stroke-dasharray="2 2"/></g></pattern><pattern id="latt-a11y-tex-12" patternUnits="userSpaceOnUse" width="8" height="8"><rect width="8" height="8" fill="#868686"/><g fill="#1a1a1a" fill-opacity="0.40"><rect x="0" y="0" width="4" height="4"/><rect x="4" y="4" width="4" height="4"/></g></pattern><pattern id="latt-a11y-chart-tex-1" patternUnits="userSpaceOnUse" width="8" height="8"><rect width="8" height="8" fill="#2e2e2e"/><g fill="none" stroke="#f5f5f5" stroke-opacity="0.45" stroke-width="1" stroke-linecap="square"><path d="M0 8 L8 0"/></g></pattern><pattern id="latt-a11y-chart-tex-2" patternUnits="userSpaceOnUse" width="8" height="8"><rect width="8" height="8" fill="#3b3b3b"/><g fill="none" stroke="#f5f5f5" stroke-opacity="0.45" stroke-width="1" stroke-linecap="square"><path d="M0 0 L8 8"/></g></pattern><pattern id="latt-a11y-chart-tex-3" patternUnits="userSpaceOnUse" width="8" height="8"><rect width="8" height="8" fill="#484848"/><g fill="none" stroke="#f5f5f5" stroke-opacity="0.45" stroke-width="1" stroke-linecap="square"><path d="M0 4 H8"/></g></pattern><pattern id="latt-a11y-chart-tex-4" patternUnits="userSpaceOnUse" width="8" height="8"><rect width="8" height="8" fill="#565656"/><g fill="none" stroke="#f5f5f5" stroke-opacity="0.45" stroke-width="1" stroke-linecap="square"><path d="M4 0 V8"/></g></pattern><pattern id="latt-a11y-chart-tex-5" patternUnits="userSpaceOnUse" width="8" height="8"><rect width="8" height="8" fill="#656565"/><g fill="#f5f5f5" fill-opacity="0.40"><circle cx="4" cy="4" r="1.4"/></g></pattern><pattern id="latt-a11y-chart-tex-6" patternUnits="userSpaceOnUse" width="8" height="8"><rect width="8" height="8" fill="#737373"/><g fill="none" stroke="#f5f5f5" stroke-opacity="0.45" stroke-width="1" stroke-linecap="square"><path d="M0 8 L8 0 M0 0 L8 8"/></g></pattern><pattern id="latt-a11y-chart-tex-7" patternUnits="userSpaceOnUse" width="8" height="8"><rect width="8" height="8" fill="#838383"/><g fill="none" stroke="#f5f5f5" stroke-opacity="0.45" stroke-width="1" stroke-linecap="square"><path d="M0 4 H8 M4 0 V8"/></g></pattern><pattern id="latt-a11y-chart-tex-8" patternUnits="userSpaceOnUse" width="8" height="8"><rect width="8" height="8" fill="#929292"/><g fill="none" stroke="#f5f5f5" stroke-opacity="0.45" stroke-width="1" stroke-linecap="square"><path d="M0 2 H8 M0 6 H8" stroke-dasharray="2 2"/></g></pattern><style>.latt-onyx-tex-r1{fill:light-dark(#e8e8e8,#161616)}.latt-onyx-tex-i1{stroke:light-dark(#8a8a8a,#f5f5f5)}.latt-onyx-tex-r2{fill:light-dark(#dedede,#1e1e1e)}.latt-onyx-tex-i2{stroke:light-dark(#8a8a8a,#f5f5f5)}.latt-onyx-tex-r3{fill:light-dark(#d5d5d5,#262626)}.latt-onyx-tex-i3{stroke:light-dark(#8a8a8a,#f5f5f5)}.latt-onyx-tex-r4{fill:light-dark(#cccccc,#2e2e2e)}.latt-onyx-tex-i4{stroke:light-dark(#8a8a8a,#f5f5f5)}.latt-onyx-tex-r5{fill:light-dark(#c3c3c3,#363636)}.latt-onyx-tex-i5{fill:light-dark(#8a8a8a,#f5f5f5)}.latt-onyx-tex-r6{fill:light-dark(#bababa,#3f3f3f)}.latt-onyx-tex-i6{stroke:light-dark(#8a8a8a,#f5f5f5)}.latt-onyx-tex-r7{fill:light-dark(#b1b1b1,#474747)}.latt-onyx-tex-i7{stroke:light-dark(#8a8a8a,#f5f5f5)}.latt-onyx-tex-r8{fill:light-dark(#a8a8a8,#505050)}.latt-onyx-tex-i8{stroke:light-dark(#8a8a8a,#f5f5f5)}.latt-onyx-tex-r9{fill:light-dark(#a0a0a0,#595959)}.latt-onyx-tex-i9{stroke:light-dark(#8a8a8a,#f5f5f5)}.latt-onyx-tex-r10{fill:light-dark(#979797,#636363)}.latt-onyx-tex-i10{stroke:light-dark(#8a8a8a,#f5f5f5)}.latt-onyx-tex-r11{fill:light-dark(#8e8e8e,#6c6c6c)}.latt-onyx-tex-i11{stroke:light-dark(#8a8a8a,#f5f5f5)}.latt-onyx-tex-r12{fill:light-dark(#868686,#757575)}.latt-onyx-tex-i12{fill:light-dark(#8a8a8a,#f5f5f5)}</style><pattern id="latt-onyx-tex-1" patternUnits="userSpaceOnUse" width="8" height="8"><rect class="latt-onyx-tex-r1" fill="#e8e8e8" width="8" height="8"/><g class="latt-onyx-tex-i1" fill="none" stroke="#8a8a8a" stroke-opacity="0.45" stroke-width="1" stroke-linecap="square"><path d="M0 8 L8 0"/></g></pattern><pattern id="latt-onyx-tex-2" patternUnits="userSpaceOnUse" width="8" height="8"><rect class="latt-onyx-tex-r2" fill="#dedede" width="8" height="8"/><g class="latt-onyx-tex-i2" fill="none" stroke="#8a8a8a" stroke-opacity="0.45" stroke-width="1" stroke-linecap="square"><path d="M0 0 L8 8"/></g></pattern><pattern id="latt-onyx-tex-3" patternUnits="userSpaceOnUse" width="8" height="8"><rect class="latt-onyx-tex-r3" fill="#d5d5d5" width="8" height="8"/><g class="latt-onyx-tex-i3" fill="none" stroke="#8a8a8a" stroke-opacity="0.45" stroke-width="1" stroke-linecap="square"><path d="M0 4 H8"/></g></pattern><pattern id="latt-onyx-tex-4" patternUnits="userSpaceOnUse" width="8" height="8"><rect class="latt-onyx-tex-r4" fill="#cccccc" width="8" height="8"/><g class="latt-onyx-tex-i4" fill="none" stroke="#8a8a8a" stroke-opacity="0.45" stroke-width="1" stroke-linecap="square"><path d="M4 0 V8"/></g></pattern><pattern id="latt-onyx-tex-5" patternUnits="userSpaceOnUse" width="8" height="8"><rect class="latt-onyx-tex-r5" fill="#c3c3c3" width="8" height="8"/><g class="latt-onyx-tex-i5" fill="#8a8a8a" fill-opacity="0.40"><circle cx="4" cy="4" r="1.4"/></g></pattern><pattern id="latt-onyx-tex-6" patternUnits="userSpaceOnUse" width="8" height="8"><rect class="latt-onyx-tex-r6" fill="#bababa" width="8" height="8"/><g class="latt-onyx-tex-i6" fill="none" stroke="#8a8a8a" stroke-opacity="0.45" stroke-width="1" stroke-linecap="square"><path d="M0 8 L8 0 M0 0 L8 8"/></g></pattern><pattern id="latt-onyx-tex-7" patternUnits="userSpaceOnUse" width="8" height="8"><rect class="latt-onyx-tex-r7" fill="#b1b1b1" width="8" height="8"/><g class="latt-onyx-tex-i7" fill="none" stroke="#8a8a8a" stroke-opacity="0.45" stroke-width="1" stroke-linecap="square"><path d="M0 4 H8 M4 0 V8"/></g></pattern><pattern id="latt-onyx-tex-8" patternUnits="userSpaceOnUse" width="8" height="8"><rect class="latt-onyx-tex-r8" fill="#a8a8a8" width="8" height="8"/><g class="latt-onyx-tex-i8" fill="none" stroke="#8a8a8a" stroke-opacity="0.45" stroke-width="1" stroke-linecap="square"><path d="M0 2 H8 M0 6 H8" stroke-dasharray="2 2"/></g></pattern><pattern id="latt-onyx-tex-9" patternUnits="userSpaceOnUse" width="8" height="8"><rect class="latt-onyx-tex-r9" fill="#a0a0a0" width="8" height="8"/><g class="latt-onyx-tex-i9" fill="none" stroke="#8a8a8a" stroke-opacity="0.45" stroke-width="1" stroke-linecap="square"><path d="M0 1 L4 7 L8 1"/></g></pattern><pattern id="latt-onyx-tex-10" patternUnits="userSpaceOnUse" width="8" height="8"><rect class="latt-onyx-tex-r10" fill="#979797" width="8" height="8"/><g class="latt-onyx-tex-i10" fill="none" stroke="#8a8a8a" stroke-opacity="0.45" stroke-width="1" stroke-linecap="square"><circle cx="4" cy="4" r="2.2"/></g></pattern><pattern id="latt-onyx-tex-11" patternUnits="userSpaceOnUse" width="8" height="8"><rect class="latt-onyx-tex-r11" fill="#8e8e8e" width="8" height="8"/><g class="latt-onyx-tex-i11" fill="none" stroke="#8a8a8a" stroke-opacity="0.45" stroke-width="1" stroke-linecap="square"><path d="M2 0 V8 M6 0 V8" stroke-dasharray="2 2"/></g></pattern><pattern id="latt-onyx-tex-12" patternUnits="userSpaceOnUse" width="8" height="8"><rect class="latt-onyx-tex-r12" fill="#868686" width="8" height="8"/><g class="latt-onyx-tex-i12" fill="#8a8a8a" fill-opacity="0.40"><rect x="0" y="0" width="4" height="4"/><rect x="4" y="4" width="4" height="4"/></g></pattern><style>.latt-concrete-tex-r1{fill:light-dark(#FDFBFB,#6A4E4E)}.latt-concrete-tex-i1{stroke:light-dark(#8f8f8c,#EDEBE8)}.latt-concrete-tex-r2{fill:light-dark(#F0F2F1,#4F685C)}.latt-concrete-tex-i2{stroke:light-dark(#8f8f8c,#EDEBE8)}.latt-concrete-tex-r3{fill:light-dark(#E6E7E8,#4F5C68)}.latt-concrete-tex-i3{fill:light-dark(#8f8f8c,#EDEBE8)}.latt-concrete-tex-r4{fill:light-dark(#DDDCDB,#685C4F)}.latt-concrete-tex-i4{fill:light-dark(#8f8f8c,#EDEBE8)}.latt-concrete-tex-r5{fill:light-dark(#D4D2D3,#684F5C)}.latt-concrete-tex-i5{stroke:light-dark(#8f8f8c,#EDEBE8)}.latt-concrete-tex-r6{fill:light-dark(#C7C9C9,#4F6868)}.latt-concrete-tex-i6{fill:light-dark(#8f8f8c,#EDEBE8)}.latt-concrete-tex-r7{fill:light-dark(#BEBEBD,#676751)}.latt-concrete-tex-i7{stroke:light-dark(#8f8f8c,#EDEBE8)}.latt-concrete-tex-r8{fill:light-dark(#B3B5B3,#516751)}.latt-concrete-tex-i8{stroke:light-dark(#8f8f8c,#EDEBE8)}.latt-concrete-tex-r9{fill:light-dark(#AAAAAC,#515167)}.latt-concrete-tex-i9{stroke:light-dark(#8f8f8c,#EDEBE8)}.latt-concrete-tex-r10{fill:light-dark(#A2A0A2,#675167)}.latt-concrete-tex-i10{stroke:light-dark(#8f8f8c,#EDEBE8)}.latt-concrete-tex-r11{fill:light-dark(#979896,#5C6751)}.latt-concrete-tex-i11{fill:light-dark(#8f8f8c,#EDEBE8)}.latt-concrete-tex-r12{fill:light-dark(#8F8E8F,#5C5167)}.latt-concrete-tex-i12{fill:light-dark(#8f8f8c,#EDEBE8)}</style><pattern id="latt-concrete-tex-1" patternUnits="userSpaceOnUse" width="8" height="8"><rect class="latt-concrete-tex-r1" fill="#FDFBFB" width="8" height="8"/><g class="latt-concrete-tex-i1" fill="none" stroke="#8f8f8c" stroke-opacity="0.45" stroke-width="1" stroke-linecap="square"><path d="M0 2.5 H8 M0 5.5 H8"/></g></pattern><pattern id="latt-concrete-tex-2" patternUnits="userSpaceOnUse" width="8" height="8"><rect class="latt-concrete-tex-r2" fill="#F0F2F1" width="8" height="8"/><g class="latt-concrete-tex-i2" fill="none" stroke="#8f8f8c" stroke-opacity="0.45" stroke-width="1" stroke-linecap="square"><path d="M0 8 L8 0"/></g></pattern><pattern id="latt-concrete-tex-3" patternUnits="userSpaceOnUse" width="8" height="8"><rect class="latt-concrete-tex-r3" fill="#E6E7E8" width="8" height="8"/><g class="latt-concrete-tex-i3" fill="#8f8f8c" fill-opacity="0.40"><circle cx="4" cy="4" r="1.5"/></g></pattern><pattern id="latt-concrete-tex-4" patternUnits="userSpaceOnUse" width="8" height="8"><rect class="latt-concrete-tex-r4" fill="#DDDCDB" width="8" height="8"/><g class="latt-concrete-tex-i4" fill="#8f8f8c" fill-opacity="0.40"><rect x="1.2" y="0" width="1.5" height="8"/><rect x="5.3" y="0" width="1.5" height="8"/></g></pattern><pattern id="latt-concrete-tex-5" patternUnits="userSpaceOnUse" width="8" height="8"><rect class="latt-concrete-tex-r5" fill="#D4D2D3" width="8" height="8"/><g class="latt-concrete-tex-i5" fill="none" stroke="#8f8f8c" stroke-opacity="0.45" stroke-width="1" stroke-linecap="square"><path d="M0 6 L4 2 L8 6"/></g></pattern><pattern id="latt-concrete-tex-6" patternUnits="userSpaceOnUse" width="8" height="8"><rect class="latt-concrete-tex-r6" fill="#C7C9C9" width="8" height="8"/><g class="latt-concrete-tex-i6" fill="#8f8f8c" fill-opacity="0.40"><rect x="0" y="0" width="4" height="4"/><rect x="4" y="4" width="4" height="4"/></g></pattern><pattern id="latt-concrete-tex-7" patternUnits="userSpaceOnUse" width="8" height="8"><rect class="latt-concrete-tex-r7" fill="#BEBEBD" width="8" height="8"/><g class="latt-concrete-tex-i7" fill="none" stroke="#8f8f8c" stroke-opacity="0.45" stroke-width="1" stroke-linecap="square"><path d="M0 0 L8 8"/></g></pattern><pattern id="latt-concrete-tex-8" patternUnits="userSpaceOnUse" width="8" height="8"><rect class="latt-concrete-tex-r8" fill="#B3B5B3" width="8" height="8"/><g class="latt-concrete-tex-i8" fill="none" stroke="#8f8f8c" stroke-opacity="0.45" stroke-width="1" stroke-linecap="square"><path d="M0 4 H8 M4 0 V8"/></g></pattern><pattern id="latt-concrete-tex-9" patternUnits="userSpaceOnUse" width="8" height="8"><rect class="latt-concrete-tex-r9" fill="#AAAAAC" width="8" height="8"/><g class="latt-concrete-tex-i9" fill="none" stroke="#8f8f8c" stroke-opacity="0.45" stroke-width="1" stroke-linecap="square"><path d="M0 8 L8 0 M0 0 L8 8"/></g></pattern><pattern id="latt-concrete-tex-10" patternUnits="userSpaceOnUse" width="8" height="8"><rect class="latt-concrete-tex-r10" fill="#A2A0A2" width="8" height="8"/><g class="latt-concrete-tex-i10" fill="none" stroke="#8f8f8c" stroke-opacity="0.45" stroke-width="1" stroke-linecap="square"><path d="M0 4 H8" stroke-dasharray="2 2"/></g></pattern><pattern id="latt-concrete-tex-11" patternUnits="userSpaceOnUse" width="8" height="8"><rect class="latt-concrete-tex-r11" fill="#979896" width="8" height="8"/><g class="latt-concrete-tex-i11" fill="#8f8f8c" fill-opacity="0.40"><circle cx="2" cy="2.4" r="1"/><circle cx="6.1" cy="1.9" r="0.7"/><circle cx="3.3" cy="6" r="1.2"/><circle cx="6.4" cy="5.9" r="0.8"/></g></pattern><pattern id="latt-concrete-tex-12" patternUnits="userSpaceOnUse" width="8" height="8"><rect class="latt-concrete-tex-r12" fill="#8F8E8F" width="8" height="8"/><g class="latt-concrete-tex-i12" fill="#8f8f8c" fill-opacity="0.40"><circle cx="2" cy="2" r="0.6"/><circle cx="6" cy="2" r="0.6"/><circle cx="4" cy="4" r="0.6"/><circle cx="2" cy="6" r="0.6"/><circle cx="6" cy="6" r="0.6"/></g></pattern><pattern id="latt-onyx-tex-light-1" patternUnits="userSpaceOnUse" width="8" height="8"><rect width="8" height="8" fill="#e8e8e8"/><g fill="none" stroke="#8a8a8a" stroke-opacity="0.45" stroke-width="1" stroke-linecap="square"><path d="M0 8 L8 0"/></g></pattern><pattern id="latt-onyx-tex-light-2" patternUnits="userSpaceOnUse" width="8" height="8"><rect width="8" height="8" fill="#dedede"/><g fill="none" stroke="#8a8a8a" stroke-opacity="0.45" stroke-width="1" stroke-linecap="square"><path d="M0 0 L8 8"/></g></pattern><pattern id="latt-onyx-tex-light-3" patternUnits="userSpaceOnUse" width="8" height="8"><rect width="8" height="8" fill="#d5d5d5"/><g fill="none" stroke="#8a8a8a" stroke-opacity="0.45" stroke-width="1" stroke-linecap="square"><path d="M0 4 H8"/></g></pattern><pattern id="latt-onyx-tex-light-4" patternUnits="userSpaceOnUse" width="8" height="8"><rect width="8" height="8" fill="#cccccc"/><g fill="none" stroke="#8a8a8a" stroke-opacity="0.45" stroke-width="1" stroke-linecap="square"><path d="M4 0 V8"/></g></pattern><pattern id="latt-onyx-tex-light-5" patternUnits="userSpaceOnUse" width="8" height="8"><rect width="8" height="8" fill="#c3c3c3"/><g fill="#8a8a8a" fill-opacity="0.40"><circle cx="4" cy="4" r="1.4"/></g></pattern><pattern id="latt-onyx-tex-light-6" patternUnits="userSpaceOnUse" width="8" height="8"><rect width="8" height="8" fill="#bababa"/><g fill="none" stroke="#8a8a8a" stroke-opacity="0.45" stroke-width="1" stroke-linecap="square"><path d="M0 8 L8 0 M0 0 L8 8"/></g></pattern><pattern id="latt-onyx-tex-light-7" patternUnits="userSpaceOnUse" width="8" height="8"><rect width="8" height="8" fill="#b1b1b1"/><g fill="none" stroke="#8a8a8a" stroke-opacity="0.45" stroke-width="1" stroke-linecap="square"><path d="M0 4 H8 M4 0 V8"/></g></pattern><pattern id="latt-onyx-tex-light-8" patternUnits="userSpaceOnUse" width="8" height="8"><rect width="8" height="8" fill="#a8a8a8"/><g fill="none" stroke="#8a8a8a" stroke-opacity="0.45" stroke-width="1" stroke-linecap="square"><path d="M0 2 H8 M0 6 H8" stroke-dasharray="2 2"/></g></pattern><pattern id="latt-onyx-tex-light-9" patternUnits="userSpaceOnUse" width="8" height="8"><rect width="8" height="8" fill="#a0a0a0"/><g fill="none" stroke="#8a8a8a" stroke-opacity="0.45" stroke-width="1" stroke-linecap="square"><path d="M0 1 L4 7 L8 1"/></g></pattern><pattern id="latt-onyx-tex-light-10" patternUnits="userSpaceOnUse" width="8" height="8"><rect width="8" height="8" fill="#979797"/><g fill="none" stroke="#8a8a8a" stroke-opacity="0.45" stroke-width="1" stroke-linecap="square"><circle cx="4" cy="4" r="2.2"/></g></pattern><pattern id="latt-onyx-tex-light-11" patternUnits="userSpaceOnUse" width="8" height="8"><rect width="8" height="8" fill="#8e8e8e"/><g fill="none" stroke="#8a8a8a" stroke-opacity="0.45" stroke-width="1" stroke-linecap="square"><path d="M2 0 V8 M6 0 V8" stroke-dasharray="2 2"/></g></pattern><pattern id="latt-onyx-tex-light-12" patternUnits="userSpaceOnUse" width="8" height="8"><rect width="8" height="8" fill="#868686"/><g fill="#8a8a8a" fill-opacity="0.40"><rect x="0" y="0" width="4" height="4"/><rect x="4" y="4" width="4" height="4"/></g></pattern><pattern id="latt-onyx-tex-dark-1" patternUnits="userSpaceOnUse" width="8" height="8"><rect width="8" height="8" fill="#161616"/><g fill="none" stroke="#f5f5f5" stroke-opacity="0.45" stroke-width="1" stroke-linecap="square"><path d="M0 8 L8 0"/></g></pattern><pattern id="latt-onyx-tex-dark-2" patternUnits="userSpaceOnUse" width="8" height="8"><rect width="8" height="8" fill="#1e1e1e"/><g fill="none" stroke="#f5f5f5" stroke-opacity="0.45" stroke-width="1" stroke-linecap="square"><path d="M0 0 L8 8"/></g></pattern><pattern id="latt-onyx-tex-dark-3" patternUnits="userSpaceOnUse" width="8" height="8"><rect width="8" height="8" fill="#262626"/><g fill="none" stroke="#f5f5f5" stroke-opacity="0.45" stroke-width="1" stroke-linecap="square"><path d="M0 4 H8"/></g></pattern><pattern id="latt-onyx-tex-dark-4" patternUnits="userSpaceOnUse" width="8" height="8"><rect width="8" height="8" fill="#2e2e2e"/><g fill="none" stroke="#f5f5f5" stroke-opacity="0.45" stroke-width="1" stroke-linecap="square"><path d="M4 0 V8"/></g></pattern><pattern id="latt-onyx-tex-dark-5" patternUnits="userSpaceOnUse" width="8" height="8"><rect width="8" height="8" fill="#363636"/><g fill="#f5f5f5" fill-opacity="0.40"><circle cx="4" cy="4" r="1.4"/></g></pattern><pattern id="latt-onyx-tex-dark-6" patternUnits="userSpaceOnUse" width="8" height="8"><rect width="8" height="8" fill="#3f3f3f"/><g fill="none" stroke="#f5f5f5" stroke-opacity="0.45" stroke-width="1" stroke-linecap="square"><path d="M0 8 L8 0 M0 0 L8 8"/></g></pattern><pattern id="latt-onyx-tex-dark-7" patternUnits="userSpaceOnUse" width="8" height="8"><rect width="8" height="8" fill="#474747"/><g fill="none" stroke="#f5f5f5" stroke-opacity="0.45" stroke-width="1" stroke-linecap="square"><path d="M0 4 H8 M4 0 V8"/></g></pattern><pattern id="latt-onyx-tex-dark-8" patternUnits="userSpaceOnUse" width="8" height="8"><rect width="8" height="8" fill="#505050"/><g fill="none" stroke="#f5f5f5" stroke-opacity="0.45" stroke-width="1" stroke-linecap="square"><path d="M0 2 H8 M0 6 H8" stroke-dasharray="2 2"/></g></pattern><pattern id="latt-onyx-tex-dark-9" patternUnits="userSpaceOnUse" width="8" height="8"><rect width="8" height="8" fill="#595959"/><g fill="none" stroke="#f5f5f5" stroke-opacity="0.45" stroke-width="1" stroke-linecap="square"><path d="M0 1 L4 7 L8 1"/></g></pattern><pattern id="latt-onyx-tex-dark-10" patternUnits="userSpaceOnUse" width="8" height="8"><rect width="8" height="8" fill="#636363"/><g fill="none" stroke="#f5f5f5" stroke-opacity="0.45" stroke-width="1" stroke-linecap="square"><circle cx="4" cy="4" r="2.2"/></g></pattern><pattern id="latt-onyx-tex-dark-11" patternUnits="userSpaceOnUse" width="8" height="8"><rect width="8" height="8" fill="#6c6c6c"/><g fill="none" stroke="#f5f5f5" stroke-opacity="0.45" stroke-width="1" stroke-linecap="square"><path d="M2 0 V8 M6 0 V8" stroke-dasharray="2 2"/></g></pattern><pattern id="latt-onyx-tex-dark-12" patternUnits="userSpaceOnUse" width="8" height="8"><rect width="8" height="8" fill="#757575"/><g fill="#f5f5f5" fill-opacity="0.40"><rect x="0" y="0" width="4" height="4"/><rect x="4" y="4" width="4" height="4"/></g></pattern><pattern id="latt-concrete-tex-light-1" patternUnits="userSpaceOnUse" width="8" height="8"><rect width="8" height="8" fill="#FDFBFB"/><g fill="none" stroke="#8f8f8c" stroke-opacity="0.45" stroke-width="1" stroke-linecap="square"><path d="M0 2.5 H8 M0 5.5 H8"/></g></pattern><pattern id="latt-concrete-tex-light-2" patternUnits="userSpaceOnUse" width="8" height="8"><rect width="8" height="8" fill="#F0F2F1"/><g fill="none" stroke="#8f8f8c" stroke-opacity="0.45" stroke-width="1" stroke-linecap="square"><path d="M0 8 L8 0"/></g></pattern><pattern id="latt-concrete-tex-light-3" patternUnits="userSpaceOnUse" width="8" height="8"><rect width="8" height="8" fill="#E6E7E8"/><g fill="#8f8f8c" fill-opacity="0.40"><circle cx="4" cy="4" r="1.5"/></g></pattern><pattern id="latt-concrete-tex-light-4" patternUnits="userSpaceOnUse" width="8" height="8"><rect width="8" height="8" fill="#DDDCDB"/><g fill="#8f8f8c" fill-opacity="0.40"><rect x="1.2" y="0" width="1.5" height="8"/><rect x="5.3" y="0" width="1.5" height="8"/></g></pattern><pattern id="latt-concrete-tex-light-5" patternUnits="userSpaceOnUse" width="8" height="8"><rect width="8" height="8" fill="#D4D2D3"/><g fill="none" stroke="#8f8f8c" stroke-opacity="0.45" stroke-width="1" stroke-linecap="square"><path d="M0 6 L4 2 L8 6"/></g></pattern><pattern id="latt-concrete-tex-light-6" patternUnits="userSpaceOnUse" width="8" height="8"><rect width="8" height="8" fill="#C7C9C9"/><g fill="#8f8f8c" fill-opacity="0.40"><rect x="0" y="0" width="4" height="4"/><rect x="4" y="4" width="4" height="4"/></g></pattern><pattern id="latt-concrete-tex-light-7" patternUnits="userSpaceOnUse" width="8" height="8"><rect width="8" height="8" fill="#BEBEBD"/><g fill="none" stroke="#8f8f8c" stroke-opacity="0.45" stroke-width="1" stroke-linecap="square"><path d="M0 0 L8 8"/></g></pattern><pattern id="latt-concrete-tex-light-8" patternUnits="userSpaceOnUse" width="8" height="8"><rect width="8" height="8" fill="#B3B5B3"/><g fill="none" stroke="#8f8f8c" stroke-opacity="0.45" stroke-width="1" stroke-linecap="square"><path d="M0 4 H8 M4 0 V8"/></g></pattern><pattern id="latt-concrete-tex-light-9" patternUnits="userSpaceOnUse" width="8" height="8"><rect width="8" height="8" fill="#AAAAAC"/><g fill="none" stroke="#8f8f8c" stroke-opacity="0.45" stroke-width="1" stroke-linecap="square"><path d="M0 8 L8 0 M0 0 L8 8"/></g></pattern><pattern id="latt-concrete-tex-light-10" patternUnits="userSpaceOnUse" width="8" height="8"><rect width="8" height="8" fill="#A2A0A2"/><g fill="none" stroke="#8f8f8c" stroke-opacity="0.45" stroke-width="1" stroke-linecap="square"><path d="M0 4 H8" stroke-dasharray="2 2"/></g></pattern><pattern id="latt-concrete-tex-light-11" patternUnits="userSpaceOnUse" width="8" height="8"><rect width="8" height="8" fill="#979896"/><g fill="#8f8f8c" fill-opacity="0.40"><circle cx="2" cy="2.4" r="1"/><circle cx="6.1" cy="1.9" r="0.7"/><circle cx="3.3" cy="6" r="1.2"/><circle cx="6.4" cy="5.9" r="0.8"/></g></pattern><pattern id="latt-concrete-tex-light-12" patternUnits="userSpaceOnUse" width="8" height="8"><rect width="8" height="8" fill="#8F8E8F"/><g fill="#8f8f8c" fill-opacity="0.40"><circle cx="2" cy="2" r="0.6"/><circle cx="6" cy="2" r="0.6"/><circle cx="4" cy="4" r="0.6"/><circle cx="2" cy="6" r="0.6"/><circle cx="6" cy="6" r="0.6"/></g></pattern><pattern id="latt-concrete-tex-dark-1" patternUnits="userSpaceOnUse" width="8" height="8"><rect width="8" height="8" fill="#6A4E4E"/><g fill="none" stroke="#EDEBE8" stroke-opacity="0.45" stroke-width="1" stroke-linecap="square"><path d="M0 2.5 H8 M0 5.5 H8"/></g></pattern><pattern id="latt-concrete-tex-dark-2" patternUnits="userSpaceOnUse" width="8" height="8"><rect width="8" height="8" fill="#4F685C"/><g fill="none" stroke="#EDEBE8" stroke-opacity="0.45" stroke-width="1" stroke-linecap="square"><path d="M0 8 L8 0"/></g></pattern><pattern id="latt-concrete-tex-dark-3" patternUnits="userSpaceOnUse" width="8" height="8"><rect width="8" height="8" fill="#4F5C68"/><g fill="#EDEBE8" fill-opacity="0.40"><circle cx="4" cy="4" r="1.5"/></g></pattern><pattern id="latt-concrete-tex-dark-4" patternUnits="userSpaceOnUse" width="8" height="8"><rect width="8" height="8" fill="#685C4F"/><g fill="#EDEBE8" fill-opacity="0.40"><rect x="1.2" y="0" width="1.5" height="8"/><rect x="5.3" y="0" width="1.5" height="8"/></g></pattern><pattern id="latt-concrete-tex-dark-5" patternUnits="userSpaceOnUse" width="8" height="8"><rect width="8" height="8" fill="#684F5C"/><g fill="none" stroke="#EDEBE8" stroke-opacity="0.45" stroke-width="1" stroke-linecap="square"><path d="M0 6 L4 2 L8 6"/></g></pattern><pattern id="latt-concrete-tex-dark-6" patternUnits="userSpaceOnUse" width="8" height="8"><rect width="8" height="8" fill="#4F6868"/><g fill="#EDEBE8" fill-opacity="0.40"><rect x="0" y="0" width="4" height="4"/><rect x="4" y="4" width="4" height="4"/></g></pattern><pattern id="latt-concrete-tex-dark-7" patternUnits="userSpaceOnUse" width="8" height="8"><rect width="8" height="8" fill="#676751"/><g fill="none" stroke="#EDEBE8" stroke-opacity="0.45" stroke-width="1" stroke-linecap="square"><path d="M0 0 L8 8"/></g></pattern><pattern id="latt-concrete-tex-dark-8" patternUnits="userSpaceOnUse" width="8" height="8"><rect width="8" height="8" fill="#516751"/><g fill="none" stroke="#EDEBE8" stroke-opacity="0.45" stroke-width="1" stroke-linecap="square"><path d="M0 4 H8 M4 0 V8"/></g></pattern><pattern id="latt-concrete-tex-dark-9" patternUnits="userSpaceOnUse" width="8" height="8"><rect width="8" height="8" fill="#515167"/><g fill="none" stroke="#EDEBE8" stroke-opacity="0.45" stroke-width="1" stroke-linecap="square"><path d="M0 8 L8 0 M0 0 L8 8"/></g></pattern><pattern id="latt-concrete-tex-dark-10" patternUnits="userSpaceOnUse" width="8" height="8"><rect width="8" height="8" fill="#675167"/><g fill="none" stroke="#EDEBE8" stroke-opacity="0.45" stroke-width="1" stroke-linecap="square"><path d="M0 4 H8" stroke-dasharray="2 2"/></g></pattern><pattern id="latt-concrete-tex-dark-11" patternUnits="userSpaceOnUse" width="8" height="8"><rect width="8" height="8" fill="#5C6751"/><g fill="#EDEBE8" fill-opacity="0.40"><circle cx="2" cy="2.4" r="1"/><circle cx="6.1" cy="1.9" r="0.7"/><circle cx="3.3" cy="6" r="1.2"/><circle cx="6.4" cy="5.9" r="0.8"/></g></pattern><pattern id="latt-concrete-tex-dark-12" patternUnits="userSpaceOnUse" width="8" height="8"><rect width="8" height="8" fill="#5C5167"/><g fill="#EDEBE8" fill-opacity="0.40"><circle cx="2" cy="2" r="0.6"/><circle cx="6" cy="2" r="0.6"/><circle cx="4" cy="4" r="0.6"/><circle cx="2" cy="6" r="0.6"/><circle cx="6" cy="6" r="0.6"/></g></pattern></defs></svg>