<svg xmlns="http://www.w3.org/2000/svg" viewBox="0 0 100 100" width="100" height="100" role="img" aria-label="Illustrated stand-in portrait">
  <rect width="100" height="100" fill="#D9E2E1"/>
  <path d="M50 66c16 0 29 11 31 26v8H19v-8c2-15 15-26 31-26z" fill="#44585C"/>
  <rect x="43" y="55" width="14" height="16" rx="7" fill="#E0BFA4"/>
  <ellipse cx="50" cy="41" rx="18" ry="18" fill="#A8905F"/><path d="M32 38c4-10 14-15 24-13 6 1 10 5 11 10-6-6-14-6-21-3-5 2-9 4-14 6z" fill="#A8905F"/>
  <ellipse cx="50" cy="46" rx="16" ry="18" fill="#E0BFA4"/>
</svg>
