<svg xmlns="http://www.w3.org/2000/svg" viewBox="0 0 351 128" fill="none"><style>.sf{fill:#9DB2BE}</style><g transform="translate(4.0 6.89) scale(0.7875)"><mask id="laticent-cut-lockup" maskUnits="userSpaceOnUse" x="0" y="0" width="128" height="128"><rect width="128" height="128" fill="#fff"/><path d="M40.00 34.00 L40.00 95.00 L90.00 95.00" fill="none" stroke-width="2.80" stroke-linecap="butt" stroke-linejoin="round" stroke="#000"/></mask><path d="M30.00 19.00 L50.00 19.00 L50.00 76.60 Q50.00 87.00 60.40 87.00 L98.00 87.00 L98.00 103.00 L30.00 103.00 Z" class="sf" mask="url(#laticent-cut-lockup)"/></g><g transform="translate(101.76 88.0)"><path d="M19.27 -46.86 16.92 -46.42Q16.12 -46.24 15.72 -45.86Q15.32 -45.49 15.32 -44.86V-4.31Q15.32 -3.23 15.95 -2.77Q16.58 -2.31 17.83 -2.31H27.08Q25.84 -2.31 27.29 -2.90Q28.74 -3.49 30.06 -5.01Q31.37 -6.52 32.73 -9.37L35.42 -15.04Q35.68 -15.58 36.06 -15.80Q36.44 -16.01 36.95 -15.86Q37.50 -15.75 37.72 -15.37Q37.94 -15.00 37.74 -14.31L34.54 -0.62Q34.28 0.33 33.92 0.74Q33.57 1.16 32.92 1.16Q32.40 1.16 31.79 0.87Q31.18 0.59 30.37 0.29Q29.56 0.00 28.37 0.00H4.44Q0.66 0.00 0.33 -0.28Q-0.00 -0.57 -0.00 -1.01Q-0.00 -1.87 0.99 -2.14L3.36 -2.58Q4.16 -2.76 4.55 -3.14Q4.94 -3.51 4.94 -4.14V-44.86Q4.94 -45.49 4.55 -45.86Q4.16 -46.24 3.36 -46.42L0.99 -46.86Q-0.00 -47.13 -0.00 -47.99Q-0.00 -48.45 0.33 -48.73Q0.66 -49.00 1.33 -49.00H22.04Q19.63 -49.00 19.96 -48.73Q20.29 -48.45 20.29 -47.99Q20.29 -47.13 19.27 -46.86ZM59.94 -3.92V-4.48L59.40 -4.42V-26.01Q59.40 -28.51 58.24 -29.86Q57.07 -31.21 54.95 -31.21Q52.82 -31.21 51.72 -30.21Q50.62 -29.22 50.62 -27.91V-24.96Q50.62 -22.98 49.28 -21.82Q47.94 -20.66 45.66 -20.66Q43.83 -20.66 42.81 -21.60Q41.79 -22.54 41.79 -24.31Q41.79 -26.34 43.46 -28.31Q45.12 -30.28 48.37 -31.57Q51.62 -32.85 56.40 -32.85Q62.53 -32.85 65.54 -30.33Q68.56 -27.82 68.56 -23.39V-5.21Q68.56 -4.12 68.97 -3.60Q69.38 -3.09 70.07 -3.09Q70.76 -3.09 71.21 -3.46Q71.66 -3.84 71.86 -4.42Q71.97 -4.62 72.11 -4.74Q72.25 -4.86 72.46 -4.86Q72.72 -4.86 72.86 -4.66Q72.99 -4.45 72.99 -4.11Q72.99 -3.15 72.27 -2.02Q71.55 -0.89 70.03 -0.06Q68.51 0.77 66.15 0.77Q63.16 0.77 61.55 -0.51Q59.94 -1.79 59.94 -3.92ZM40.20 -7.12Q40.20 -11.23 43.78 -13.76Q47.35 -16.29 54.31 -16.29Q56.54 -16.29 58.17 -15.88Q59.79 -15.47 61.04 -14.84L60.51 -13.45Q59.32 -14.03 58.08 -14.33Q56.83 -14.64 55.37 -14.64Q52.59 -14.64 51.04 -13.04Q49.50 -11.43 49.50 -8.56Q49.50 -5.77 50.88 -4.26Q52.27 -2.76 54.47 -2.76Q56.16 -2.76 57.76 -3.56Q59.36 -4.36 60.45 -5.79L61.04 -4.53Q59.27 -1.98 56.27 -0.60Q53.28 0.78 49.88 0.78Q45.60 0.78 42.90 -1.42Q40.20 -3.61 40.20 -7.12ZM77.02 -29.69 74.77 -30.21Q74.23 -30.39 74.00 -30.62Q73.76 -30.85 73.76 -31.18Q73.76 -31.60 74.07 -31.86Q74.39 -32.11 74.86 -32.11H80.49Q77.96 -32.11 78.34 -32.31Q78.72 -32.52 79.15 -33.06L84.24 -38.98Q84.74 -39.54 85.20 -39.84Q85.67 -40.14 86.10 -40.14Q86.62 -40.14 86.89 -39.81Q87.16 -39.49 87.16 -38.89V-9.17Q87.16 -6.55 88.18 -5.22Q89.19 -3.88 90.99 -3.88Q92.00 -3.88 92.67 -4.25Q93.35 -4.62 93.80 -5.17Q94.26 -5.73 94.67 -6.35Q95.07 -6.97 95.54 -7.42Q95.86 -7.51 96.11 -7.29Q96.35 -7.07 96.32 -6.53Q96.07 -4.41 94.91 -2.78Q93.75 -1.15 91.78 -0.23Q89.82 0.69 87.23 0.69Q82.90 0.69 80.50 -1.42Q78.10 -3.53 78.10 -7.85V-28.19Q78.10 -28.84 77.86 -29.16Q77.61 -29.48 77.02 -29.69ZM83.85 -29.82 83.96 -32.11H98.14Q95.57 -32.11 95.87 -31.88Q96.16 -31.66 96.16 -31.26Q96.16 -30.64 95.55 -30.23Q94.94 -29.82 93.61 -29.82ZM111.38 -31.29V-4.02Q111.38 -3.22 111.65 -2.80Q111.92 -2.39 112.47 -2.22L114.03 -1.89Q114.53 -1.77 114.74 -1.52Q114.96 -1.27 114.96 -0.91Q114.96 -0.51 114.65 -0.25Q114.34 0.00 113.71 0.00H102.93Q99.21 0.00 98.91 -0.25Q98.60 -0.51 98.60 -0.91Q98.60 -1.27 98.81 -1.49Q99.02 -1.72 99.46 -1.87L101.12 -2.22Q101.68 -2.42 101.94 -2.81Q102.20 -3.20 102.20 -4.02V-26.45Q102.20 -27.04 102.00 -27.32Q101.79 -27.60 101.35 -27.66L99.30 -27.74Q98.88 -27.81 98.70 -28.01Q98.51 -28.21 98.51 -28.56Q98.51 -28.96 98.74 -29.17Q98.98 -29.38 99.55 -29.58L107.56 -32.15Q108.49 -32.49 109.01 -32.61Q109.53 -32.74 109.93 -32.74Q110.68 -32.74 111.03 -32.33Q111.38 -31.93 111.38 -31.29ZM106.30 -37.69Q103.75 -37.69 102.19 -39.14Q100.63 -40.59 100.63 -42.85Q100.63 -45.10 102.19 -46.54Q103.75 -47.98 106.30 -47.98Q108.85 -47.98 110.44 -46.54Q112.04 -45.10 112.04 -42.85Q112.04 -40.59 110.44 -39.14Q108.85 -37.69 106.30 -37.69ZM147.06 -23.81Q147.06 -21.91 145.82 -20.66Q144.58 -19.40 142.45 -19.40Q140.38 -19.40 139.23 -20.60Q138.08 -21.81 138.08 -23.88V-25.62Q138.08 -27.91 136.74 -29.27Q135.40 -30.64 133.12 -30.64Q130.96 -30.64 129.30 -29.25Q127.65 -27.86 126.72 -25.29Q125.79 -22.72 125.79 -19.15Q125.79 -14.64 127.19 -11.56Q128.59 -8.48 131.07 -6.90Q133.54 -5.31 136.72 -5.31Q139.79 -5.31 142.04 -6.61Q144.30 -7.91 145.39 -10.50Q145.74 -10.95 145.97 -11.11Q146.21 -11.26 146.47 -11.26Q146.81 -11.24 146.98 -10.94Q147.15 -10.64 147.12 -10.17Q146.74 -6.96 144.87 -4.49Q142.99 -2.02 139.98 -0.62Q136.98 0.78 133.08 0.78Q128.51 0.78 124.94 -1.15Q121.37 -3.09 119.32 -6.70Q117.26 -10.32 117.26 -15.34Q117.26 -20.35 119.37 -24.31Q121.47 -28.28 125.27 -30.57Q129.06 -32.87 134.15 -32.87Q138.20 -32.87 141.08 -31.66Q143.96 -30.46 145.51 -28.40Q147.06 -26.35 147.06 -23.81ZM180.34 -19.57Q180.34 -18.40 179.65 -17.73Q178.97 -17.06 177.65 -17.06H158.95V-18.86H172.95Q171.12 -18.86 171.12 -20.07Q171.12 -25.39 169.45 -28.02Q167.77 -30.66 165.14 -30.66Q163.04 -30.66 161.47 -29.33Q159.90 -28.00 159.03 -25.40Q158.15 -22.80 158.15 -18.98Q158.15 -12.02 161.27 -8.53Q164.38 -5.04 169.46 -5.04Q172.78 -5.04 175.17 -6.62Q177.57 -8.19 178.46 -10.96Q178.81 -11.41 179.06 -11.57Q179.30 -11.73 179.52 -11.73Q179.87 -11.73 180.06 -11.42Q180.24 -11.11 180.21 -10.61Q180.04 -7.45 178.16 -4.84Q176.29 -2.24 173.12 -0.72Q169.95 0.80 165.89 0.80Q161.14 0.80 157.50 -1.21Q153.86 -3.21 151.79 -6.86Q149.72 -10.50 149.72 -15.36Q149.72 -20.56 151.75 -24.48Q153.78 -28.41 157.50 -30.64Q161.22 -32.87 166.31 -32.87Q170.67 -32.87 173.82 -31.15Q176.97 -29.44 178.65 -26.43Q180.34 -23.42 180.34 -19.57ZM196.06 -31.29V-4.02Q196.06 -3.22 196.33 -2.81Q196.60 -2.40 197.15 -2.22L198.69 -1.89Q199.49 -1.58 199.49 -0.98Q199.49 0.00 198.24 0.00H187.61Q183.89 0.00 183.59 -0.25Q183.29 -0.51 183.29 -0.91Q183.29 -1.27 183.49 -1.49Q183.70 -1.72 184.15 -1.87L185.81 -2.22Q186.36 -2.42 186.62 -2.81Q186.88 -3.20 186.88 -4.02V-26.45Q186.88 -27.04 186.68 -27.32Q186.48 -27.60 186.04 -27.66L183.98 -27.74Q183.57 -27.81 183.38 -28.01Q183.19 -28.21 183.19 -28.56Q183.19 -28.96 183.43 -29.17Q183.66 -29.38 184.23 -29.58L192.24 -32.15Q193.16 -32.45 193.67 -32.60Q194.18 -32.74 194.65 -32.74Q195.35 -32.74 195.71 -32.33Q196.06 -31.93 196.06 -31.29ZM195.17 -23.89 194.12 -24.98 195.44 -26.17Q199.42 -29.72 202.31 -31.29Q205.20 -32.85 207.75 -32.85Q211.58 -32.85 213.71 -30.35Q215.85 -27.85 216.37 -23.27L218.63 -4.17Q218.71 -3.28 218.97 -2.82Q219.23 -2.35 219.83 -2.21L221.27 -1.87Q221.76 -1.74 221.96 -1.50Q222.17 -1.27 222.17 -0.91Q222.17 -0.51 221.87 -0.25Q221.57 0.00 220.94 0.00H210.09Q205.73 0.00 205.73 -0.98Q205.73 -1.57 206.52 -1.89L208.15 -2.22Q208.77 -2.40 209.07 -2.85Q209.38 -3.30 209.25 -4.17L207.25 -22.10Q206.90 -25.04 205.79 -26.48Q204.67 -27.91 202.51 -27.91Q201.08 -27.91 199.63 -27.20Q198.17 -26.48 196.51 -25.05ZM225.46 -29.69 223.21 -30.21Q222.67 -30.39 222.44 -30.62Q222.20 -30.85 222.20 -31.18Q222.20 -31.60 222.51 -31.86Q222.83 -32.11 223.30 -32.11H228.93Q226.40 -32.11 226.78 -32.31Q227.16 -32.52 227.59 -33.06L232.68 -38.98Q233.18 -39.54 233.64 -39.84Q234.11 -40.14 234.54 -40.14Q235.06 -40.14 235.33 -39.81Q235.60 -39.49 235.60 -38.89V-9.17Q235.60 -6.55 236.62 -5.22Q237.63 -3.88 239.43 -3.88Q240.44 -3.88 241.11 -4.25Q241.79 -4.62 242.24 -5.17Q242.70 -5.73 243.11 -6.35Q243.51 -6.97 243.98 -7.42Q244.30 -7.51 244.55 -7.29Q244.79 -7.07 244.76 -6.53Q244.51 -4.41 243.35 -2.78Q242.19 -1.15 240.22 -0.23Q238.26 0.69 235.67 0.69Q231.34 0.69 228.94 -1.42Q226.54 -3.53 226.54 -7.85V-28.19Q226.54 -28.84 226.30 -29.16Q226.05 -29.48 225.46 -29.69ZM232.29 -29.82 232.40 -32.11H246.58Q244.01 -32.11 244.31 -31.88Q244.60 -31.66 244.60 -31.26Q244.60 -30.64 243.99 -30.23Q243.38 -29.82 242.05 -29.82Z" fill="#E6E2DD"/></g></svg>
